<svg xmlns="http://www.w3.org/2000/svg" xmlns:xlink="http://www.w3.org/1999/xlink" contentStyleType="text/css" height="482px" preserveAspectRatio="none" style="width:1367px;height:482px;background:#FFFFFF;" version="1.1" viewBox="0 0 1367 482" width="1367px" zoomAndPan="magnify"><defs/><g><text fill="#000000" font-family="sans-serif" font-size="14" font-weight="bold" lengthAdjust="spacing" textLength="245.9707" x="553.8509" y="23.5352">Ziel-Architektur als Microservices</text><!--cluster eigene Microservices--><g id="cluster_eigene Microservices"><polygon fill="none" points="16,163.9783,26,153.9783,1160,153.9783,1160,455.4383,1150,465.4383,16,465.4383,16,163.9783" style="stroke:#181818;stroke-width:1.0;"/><line style="stroke:#181818;stroke-width:1.0;" x1="1150" x2="1160" y1="163.9783" y2="153.9783"/><line style="stroke:#181818;stroke-width:1.0;" x1="16" x2="1150" y1="163.9783" y2="163.9783"/><line style="stroke:#181818;stroke-width:1.0;" x1="1150" x2="1150" y1="163.9783" y2="465.4383"/><text fill="#000000" font-family="sans-serif" font-size="14" font-weight="bold" lengthAdjust="spacing" textLength="151.1357" x="508.4321" y="180.5134">eigene Microservices</text></g><!--cluster Dokumentation--><g id="cluster_Dokumentation"><path d="M42.5,210.2183 L154.8369,210.2183 A3.75,3.75 0 0 1 157.3369,212.7183 L164.3369,232.7066 L324.5,232.7066 A2.5,2.5 0 0 1 327,235.2066 L327,305.2083 A2.5,2.5 0 0 1 324.5,307.7083 L42.5,307.7083 A2.5,2.5 0 0 1 40,305.2083 L40,212.7183 A2.5,2.5 0 0 1 42.5,210.2183 " fill="none" style="stroke:#000000;stroke-width:1.5;"/><line style="stroke:#000000;stroke-width:1.5;" x1="40" x2="164.3369" y1="232.7066" y2="232.7066"/><text fill="#000000" font-family="sans-serif" font-size="14" font-weight="bold" lengthAdjust="spacing" textLength="111.3369" x="44" y="225.7534">Dokumentation</text></g><!--cluster static_site--><g id="cluster_static_site"><path d="M353.5,201.9783 L527.7705,201.9783 A3.75,3.75 0 0 1 530.2705,204.4783 L537.2705,224.4666 L581.5,224.4666 A2.5,2.5 0 0 1 584,226.9666 L584,438.9383 A2.5,2.5 0 0 1 581.5,441.4383 L353.5,441.4383 A2.5,2.5 0 0 1 351,438.9383 L351,204.4783 A2.5,2.5 0 0 1 353.5,201.9783 " fill="none" style="stroke:#000000;stroke-width:1.5;"/><line style="stroke:#000000;stroke-width:1.5;" x1="351" x2="537.2705" y1="224.4666" y2="224.4666"/><text fill="#000000" font-family="sans-serif" font-size="14" font-weight="bold" lengthAdjust="spacing" textLength="173.2705" x="355" y="217.5134">statische Seiten-Service</text></g><!--cluster comment_backend--><g id="cluster_comment_backend"><path d="M610.5,201.9783 L755.2188,201.9783 A3.75,3.75 0 0 1 757.7188,204.4783 L764.7188,224.4666 L864.5,224.4666 A2.5,2.5 0 0 1 867,226.9666 L867,313.4483 A2.5,2.5 0 0 1 864.5,315.9483 L610.5,315.9483 A2.5,2.5 0 0 1 608,313.4483 L608,204.4783 A2.5,2.5 0 0 1 610.5,201.9783 " fill="none" style="stroke:#000000;stroke-width:1.5;"/><line style="stroke:#000000;stroke-width:1.5;" x1="608" x2="764.7188" y1="224.4666" y2="224.4666"/><text fill="#000000" font-family="sans-serif" font-size="14" font-weight="bold" lengthAdjust="spacing" textLength="143.7188" x="612" y="217.5134">Kommentar-Service</text></g><!--cluster form_backend--><g id="cluster_form_backend"><path d="M893.5,201.9783 L1019.7822,201.9783 A3.75,3.75 0 0 1 1022.2822,204.4783 L1029.2822,224.4666 L1133.5,224.4666 A2.5,2.5 0 0 1 1136,226.9666 L1136,313.4483 A2.5,2.5 0 0 1 1133.5,315.9483 L893.5,315.9483 A2.5,2.5 0 0 1 891,313.4483 L891,204.4783 A2.5,2.5 0 0 1 893.5,201.9783 " fill="none" style="stroke:#000000;stroke-width:1.5;"/><line style="stroke:#000000;stroke-width:1.5;" x1="891" x2="1029.2822" y1="224.4666" y2="224.4666"/><text fill="#000000" font-family="sans-serif" font-size="14" font-weight="bold" lengthAdjust="spacing" textLength="125.2822" x="895" y="217.5134">Formular-Service</text></g><!--entity db--><g id="elem_db"><rect fill="#F1F1F1" height="46.4883" rx="2.5" ry="2.5" style="stroke:#181818;stroke-width:0.5;" width="230.9004" x="735.55" y="378.9483"/><rect fill="#F1F1F1" height="10" style="stroke:#181818;stroke-width:0.5;" width="15" x="946.4504" y="383.9483"/><rect fill="#F1F1F1" height="2" style="stroke:#181818;stroke-width:0.5;" width="4" x="944.4504" y="385.9483"/><rect fill="#F1F1F1" height="2" style="stroke:#181818;stroke-width:0.5;" width="4" x="944.4504" y="389.9483"/><text fill="#000000" font-family="sans-serif" font-size="14" lengthAdjust="spacing" textLength="190.9004" x="750.55" y="412.4834">Datenbank - Postgresql o.&#228;.</text></g><!--entity http_doc--><g id="elem_http_doc"><ellipse cx="302" cy="268.4583" fill="#F1F1F1" rx="8" ry="8" style="stroke:#181818;stroke-width:0.5;"/><text fill="#000000" font-family="sans-serif" font-size="14" lengthAdjust="spacing" textLength="27.9727" x="288.0137" y="298.9934">http</text></g><!--entity doc--><g id="elem_doc"><rect fill="#F1F1F1" height="46.4883" rx="2.5" ry="2.5" style="stroke:#181818;stroke-width:0.5;" width="201.3828" x="56.31" y="245.2183"/><rect fill="#F1F1F1" height="10" style="stroke:#181818;stroke-width:0.5;" width="15" x="237.6928" y="250.2183"/><rect fill="#F1F1F1" height="2" style="stroke:#181818;stroke-width:0.5;" width="4" x="235.6928" y="252.2183"/><rect fill="#F1F1F1" height="2" style="stroke:#181818;stroke-width:0.5;" width="4" x="235.6928" y="256.2183"/><text fill="#000000" font-family="sans-serif" font-size="14" lengthAdjust="spacing" textLength="161.3828" x="71.31" y="278.7534">docsify-Dokumentation</text></g><!--entity build_site--><g id="elem_build_site"><rect fill="#F1F1F1" height="62.9766" rx="2.5" ry="2.5" style="stroke:#181818;stroke-width:0.5;" width="148.623" x="366.69" y="236.9783"/><rect fill="#F1F1F1" height="10" style="stroke:#181818;stroke-width:0.5;" width="15" x="495.313" y="241.9783"/><rect fill="#F1F1F1" height="2" style="stroke:#181818;stroke-width:0.5;" width="4" x="493.313" y="243.9783"/><rect fill="#F1F1F1" height="2" style="stroke:#181818;stroke-width:0.5;" width="4" x="493.313" y="247.9783"/><text fill="#000000" font-family="sans-serif" font-size="14" lengthAdjust="spacing" textLength="108.623" x="381.69" y="270.5134">gebildete Seiten</text><text fill="#000000" font-family="sans-serif" font-size="14" lengthAdjust="spacing" textLength="77.916" x="381.69" y="287.0017">http-Server</text></g><!--entity http_site--><g id="elem_http_site"><ellipse cx="559" cy="268.4583" fill="#F1F1F1" rx="8" ry="8" style="stroke:#181818;stroke-width:0.5;"/><text fill="#000000" font-family="sans-serif" font-size="14" lengthAdjust="spacing" textLength="27.9727" x="545.0137" y="298.9934">http</text></g><!--entity site_builder--><g id="elem_site_builder"><rect fill="#F1F1F1" height="46.4883" rx="2.5" ry="2.5" style="stroke:#181818;stroke-width:0.5;" width="119.8984" x="381.05" y="378.9483"/><rect fill="#F1F1F1" height="10" style="stroke:#181818;stroke-width:0.5;" width="15" x="480.9484" y="383.9483"/><rect fill="#F1F1F1" height="2" style="stroke:#181818;stroke-width:0.5;" width="4" x="478.9484" y="385.9483"/><rect fill="#F1F1F1" height="2" style="stroke:#181818;stroke-width:0.5;" width="4" x="478.9484" y="389.9483"/><text fill="#000000" font-family="sans-serif" font-size="14" lengthAdjust="spacing" textLength="79.8984" x="396.05" y="412.4834">Site-Builder</text></g><!--entity comment_service--><g id="elem_comment_service"><rect fill="#F1F1F1" height="62.9766" rx="2.5" ry="2.5" style="stroke:#181818;stroke-width:0.5;" width="174.4971" x="623.75" y="236.9783"/><rect fill="#F1F1F1" height="10" style="stroke:#181818;stroke-width:0.5;" width="15" x="778.2471" y="241.9783"/><rect fill="#F1F1F1" height="2" style="stroke:#181818;stroke-width:0.5;" width="4" x="776.2471" y="243.9783"/><rect fill="#F1F1F1" height="2" style="stroke:#181818;stroke-width:0.5;" width="4" x="776.2471" y="247.9783"/><text fill="#000000" font-family="sans-serif" font-size="14" lengthAdjust="spacing" textLength="134.4971" x="638.75" y="270.5134">Kommentar-Service</text><text fill="#000000" font-family="sans-serif" font-size="14" lengthAdjust="spacing" textLength="83.8428" x="638.75" y="287.0017">node-Server</text></g><!--entity http_comment--><g id="elem_http_comment"><ellipse cx="842" cy="268.4583" fill="#F1F1F1" rx="8" ry="8" style="stroke:#181818;stroke-width:0.5;"/><text fill="#000000" font-family="sans-serif" font-size="14" lengthAdjust="spacing" textLength="27.9727" x="828.0137" y="298.9934">http</text></g><!--entity form_service--><g id="elem_form_service"><rect fill="#F1F1F1" height="62.9766" rx="2.5" ry="2.5" style="stroke:#181818;stroke-width:0.5;" width="159.8682" x="907.07" y="236.9783"/><rect fill="#F1F1F1" height="10" style="stroke:#181818;stroke-width:0.5;" width="15" x="1046.9382" y="241.9783"/><rect fill="#F1F1F1" height="2" style="stroke:#181818;stroke-width:0.5;" width="4" x="1044.9382" y="243.9783"/><rect fill="#F1F1F1" height="2" style="stroke:#181818;stroke-width:0.5;" width="4" x="1044.9382" y="247.9783"/><text fill="#000000" font-family="sans-serif" font-size="14" lengthAdjust="spacing" textLength="119.8682" x="922.07" y="270.5134">Form-Service-API</text><text fill="#000000" font-family="sans-serif" font-size="14" lengthAdjust="spacing" textLength="83.8428" x="922.07" y="287.0017">node-Server</text></g><!--entity http_form--><g id="elem_http_form"><ellipse cx="1111" cy="268.4583" fill="#F1F1F1" rx="8" ry="8" style="stroke:#181818;stroke-width:0.5;"/><text fill="#000000" font-family="sans-serif" font-size="14" lengthAdjust="spacing" textLength="27.9727" x="1097.0137" y="298.9934">http</text></g><!--entity client--><g id="elem_client"><rect fill="#F1F1F1" height="46.4883" rx="2.5" ry="2.5" style="stroke:#181818;stroke-width:0.5;" width="150.2979" x="624.85" y="44.4883"/><rect fill="#F1F1F1" height="10" style="stroke:#181818;stroke-width:0.5;" width="15" x="755.1479" y="49.4883"/><rect fill="#F1F1F1" height="2" style="stroke:#181818;stroke-width:0.5;" width="4" x="753.1479" y="51.4883"/><rect fill="#F1F1F1" height="2" style="stroke:#181818;stroke-width:0.5;" width="4" x="753.1479" y="55.4883"/><text fill="#000000" font-family="sans-serif" font-size="14" lengthAdjust="spacing" textLength="110.2979" x="639.85" y="78.0234">Client - Browser</text></g><!--entity email--><g id="elem_email"><rect fill="#F1F1F1" height="46.4883" rx="2.5" ry="2.5" style="stroke:#181818;stroke-width:0.5;" width="185.3525" x="1176.32" y="378.9483"/><rect fill="#F1F1F1" height="10" style="stroke:#181818;stroke-width:0.5;" width="15" x="1341.6725" y="383.9483"/><rect fill="#F1F1F1" height="2" style="stroke:#181818;stroke-width:0.5;" width="4" x="1339.6725" y="385.9483"/><rect fill="#F1F1F1" height="2" style="stroke:#181818;stroke-width:0.5;" width="4" x="1339.6725" y="389.9483"/><text fill="#000000" font-family="sans-serif" font-size="14" lengthAdjust="spacing" textLength="145.3525" x="1191.32" y="412.4834">Email-Dienst (extern)</text></g><!--link doc to http_doc--><g id="link_doc_http_doc"><path d="M258.1,268.4583 C269.65,268.4583 281.19,268.4583 292.74,268.4583 " fill="none" id="doc-http_doc" style="stroke:#181818;stroke-width:1.0;"/></g><!--link build_site to http_site--><g id="link_build_site_http_site"><path d="M515.67,268.4583 C526.96,268.4583 538.24,268.4583 549.52,268.4583 " fill="none" id="build_site-http_site" style="stroke:#181818;stroke-width:1.0;"/></g><!--link comment_service to http_comment--><g id="link_comment_service_http_comment"><path d="M798.5,268.4583 C809.94,268.4583 821.38,268.4583 832.83,268.4583 " fill="none" id="comment_service-http_comment" style="stroke:#181818;stroke-width:1.0;"/></g><!--link form_service to http_form--><g id="link_form_service_http_form"><path d="M1067.41,268.4583 C1078.87,268.4583 1090.34,268.4583 1101.8,268.4583 " fill="none" id="form_service-http_form" style="stroke:#181818;stroke-width:1.0;"/></g><!--link client to http_site--><g id="link_client_http_site"><path d="M665.76,91.1483 C646.68,105.0583 623.68,124.3683 608,145.9783 C580.75,183.5183 567.2002,232.5316 562.2602,253.2716 " fill="none" id="client-to-http_site" style="stroke:#181818;stroke-width:1.0;stroke-dasharray:7.0,7.0;"/><polygon fill="#181818" points="560.87,259.1083,566.8465,251.28,562.0285,254.2444,559.0642,249.4264,560.87,259.1083" style="stroke:#181818;stroke-width:1.0;"/><text fill="#000000" font-family="sans-serif" font-size="13" lengthAdjust="spacing" textLength="50.0703" x="630.61" y="134.5466">Ruft auf</text></g><!--link client to http_doc--><g id="link_client_http_doc"><path d="M624.7,77.1283 C534.86,88.5383 391.67,111.5383 351,145.9783 C315.07,176.3983 305.8735,231.0851 303.4135,253.1951 " fill="none" id="client-to-http_doc" style="stroke:#181818;stroke-width:1.0;stroke-dasharray:7.0,7.0;"/><polygon fill="#181818" points="302.75,259.1583,307.7207,250.6558,303.3029,254.1889,299.7697,249.7712,302.75,259.1583" style="stroke:#181818;stroke-width:1.0;"/><text fill="#000000" font-family="sans-serif" font-size="13" lengthAdjust="spacing" textLength="50.0703" x="396.48" y="134.5466">Ruft auf</text></g><!--link client to http_form--><g id="link_client_http_form"><path d="M775.28,74.2583 C874.38,83.1083 1041.08,103.9083 1084,145.9783 C1115.94,177.2783 1114.4156,231.4122 1112.4556,253.2822 " fill="none" id="client-to-http_form" style="stroke:#181818;stroke-width:1.0;stroke-dasharray:7.0,7.0;"/><polygon fill="#181818" points="1111.92,259.2583,1116.7074,250.6513,1112.3663,254.2782,1108.7393,249.9372,1111.92,259.2583" style="stroke:#181818;stroke-width:1.0;"/><text fill="#000000" font-family="sans-serif" font-size="13" lengthAdjust="spacing" textLength="50.0703" x="1071.13" y="134.5466">Ruft auf</text></g><!--link client to http_comment--><g id="link_client_http_comment"><path d="M751.09,91.4483 C774.27,104.2583 800.02,122.4583 816,145.9783 C840.74,182.3583 842.6397,231.8988 842.3597,252.9688 " fill="none" id="client-to-http_comment" style="stroke:#181818;stroke-width:1.0;stroke-dasharray:7.0,7.0;"/><polygon fill="#181818" points="842.28,258.9683,846.3992,250.0222,842.3464,253.9687,838.3999,249.9159,842.28,258.9683" style="stroke:#181818;stroke-width:1.0;"/><text fill="#000000" font-family="sans-serif" font-size="13" lengthAdjust="spacing" textLength="50.0703" x="810.26" y="134.5466">Ruft auf</text></g><!--link form_service to email--><g id="link_form_service_email"><path d="M1033.61,300.3783 C1049.33,309.4183 1067.37,318.3683 1085,323.9483 C1116.96,334.0783 1128.35,320.8983 1160,331.9483 C1190.05,342.4483 1215.514,358.9897 1236.504,374.8597 " fill="none" id="form_service-to-email" style="stroke:#181818;stroke-width:1.0;stroke-dasharray:7.0,7.0;"/><polygon fill="#181818" points="1241.29,378.4783,1236.5234,369.8597,1237.3017,375.4628,1231.6986,376.2411,1241.29,378.4783" style="stroke:#181818;stroke-width:1.0;"/><text fill="#000000" font-family="sans-serif" font-size="13" lengthAdjust="spacing" textLength="42.2246" x="1196.26" y="345.5166">sendet</text></g><!--link form_service to db--><g id="link_form_service_db"><path d="M955.11,300.3483 C930.3,324.3783 900.7698,352.9839 878.4898,374.5639 " fill="none" id="form_service-to-db" style="stroke:#181818;stroke-width:1.0;stroke-dasharray:7.0,7.0;"/><polygon fill="#181818" points="874.18,378.7383,883.4276,375.3499,877.7715,375.2596,877.8618,369.6035,874.18,378.7383" style="stroke:#181818;stroke-width:1.0;"/><text fill="#000000" font-family="sans-serif" font-size="13" lengthAdjust="spacing" textLength="57.9604" x="920" y="345.5166">speichert</text></g><!--link comment_service to db--><g id="link_comment_service_db"><path d="M743.82,300.3483 C769.36,324.3783 799.8307,353.0462 822.7607,374.6262 " fill="none" id="comment_service-to-db" style="stroke:#181818;stroke-width:1.0;stroke-dasharray:7.0,7.0;"/><polygon fill="#181818" points="827.13,378.7383,823.3174,369.6573,823.4889,375.3116,817.8347,375.4831,827.13,378.7383" style="stroke:#181818;stroke-width:1.0;"/><text fill="#000000" font-family="sans-serif" font-size="13" lengthAdjust="spacing" textLength="92.4346" x="794.54" y="345.5166">speichert, liest</text></g><!--reverse link build_site to site_builder--><g id="link_build_site_site_builder"><path d="M406.53,305.0859 C399.11,314.4759 395.91,320.6083 392,331.9483 C386.04,349.2083 397.35,365.9983 410.6,378.7183 " fill="none" id="build_site-backto-site_builder" style="stroke:#181818;stroke-width:1.0;stroke-dasharray:7.0,7.0;"/><polygon fill="#181818" points="410.25,300.3783,401.5316,304.9597,407.15,304.3013,407.8085,309.9197,410.25,300.3783" style="stroke:#181818;stroke-width:1.0;"/><text fill="#000000" font-family="sans-serif" font-size="13" lengthAdjust="spacing" textLength="57.1606" x="393" y="345.5166">generiert</text></g><!--SRC=[VPD1Rjim44NNuIa6NYL0g0DuKI29Ko082WJrhafWKDHO9YoJBZbg6mIvJMxIYtL8oR5efTc8mFmtr1_D5nbg4NuOREMLrnj3kANEWse3V3FQku3-bz4OX2XlMeEMGCArTx-v_WGgW4v5OLsDC4FJeCMySGOlucolz5OrJ2pSjjjnWoBZR9BEpYzWGxIFbyLpLJlDrPAFODRFCkj8h-m1VeBqfjcG7FMzZjuLOa_G6uGbybnMBdjBitX94lKgi91Sb0rMfgsH3lIZZRUcdc7KgcCWTNpWUYWVcTpS89TBFkLrX8PBex2g-a9k_zxjqjm-ywtxwgfY36tTUv-WZpOkP6p-q3UivOC91eAL4pQVv1qRU_tg_AvhJwokkPZxZDW1aLSFTrERgUV_7gFCvJ6Lk-i1jbOk52-nKdRBWNrmWHgFuMSBhlZxLlGngeHuvLZVxfHfvO9Z70ZEyG-XjnU9mAW8qKSSYkBBSPTp-Dwj2LItdiYSmq_KQF0JUVYw8oARDNB9rHm2VrMagLnNhEtHSEuzYTDLJeXBO0U1n3Y7K7HxvevPdaFyhxrX_Xy0]--></g></svg>