<svg xmlns="http://www.w3.org/2000/svg" xmlns:xlink="http://www.w3.org/1999/xlink" contentStyleType="text/css" height="713px" preserveAspectRatio="none" style="width:976px;height:713px;background:#FFFFFF;" version="1.1" viewBox="0 0 976 713" width="976px" zoomAndPan="magnify"><defs/><g><text fill="#000000" font-family="sans-serif" font-size="14" font-weight="bold" lengthAdjust="spacing" textLength="182.2666" x="390.203" y="23.5352">Monolith - Komponenten</text><text fill="#000000" font-family="sans-serif" font-size="14" font-weight="bold" lengthAdjust="spacing" textLength="237.3301" x="362.6712" y="40.0234">Ausgangslage: kleine Demo-App</text><!--cluster monolith--><g id="cluster_monolith"><polygon fill="none" points="16,307.4666,26,297.4666,617,297.4666,617,596.1966,607,606.1966,16,606.1966,16,307.4666" style="stroke:#181818;stroke-width:1.0;"/><line style="stroke:#181818;stroke-width:1.0;" x1="607" x2="617" y1="307.4666" y2="297.4666"/><line style="stroke:#181818;stroke-width:1.0;" x1="16" x2="607" y1="307.4666" y2="307.4666"/><line style="stroke:#181818;stroke-width:1.0;" x1="607" x2="607" y1="307.4666" y2="606.1966"/><text fill="#000000" font-family="sans-serif" font-size="14" font-weight="bold" lengthAdjust="spacing" textLength="63.7588" x="280.6206" y="324.0017">Monolith</text></g><!--cluster webserver--><g id="cluster_webserver"><path d="M50.5,353.4666 L306.5557,353.4666 A3.75,3.75 0 0 1 309.0557,355.9666 L316.0557,375.9548 L582.5,375.9548 A2.5,2.5 0 0 1 585,378.4548 L585,464.4566 A2.5,2.5 0 0 1 582.5,466.9566 L50.5,466.9566 A2.5,2.5 0 0 1 48,464.4566 L48,355.9666 A2.5,2.5 0 0 1 50.5,353.4666 " fill="none" style="stroke:#000000;stroke-width:1.5;"/><line style="stroke:#000000;stroke-width:1.5;" x1="48" x2="316.0557" y1="375.9548" y2="375.9548"/><text fill="#000000" font-family="sans-serif" font-size="14" font-weight="bold" lengthAdjust="spacing" textLength="255.0557" x="52" y="369.0017">NodeJS-Web-Server mit App-Logik</text></g><!--entity site_builder--><g id="elem_site_builder"><rect fill="#F1F1F1" height="46.4883" rx="2.5" ry="2.5" style="stroke:#181818;stroke-width:0.5;" width="119.8984" x="58.05" y="543.7066"/><rect fill="#F1F1F1" height="10" style="stroke:#181818;stroke-width:0.5;" width="15" x="157.9484" y="548.7066"/><rect fill="#F1F1F1" height="2" style="stroke:#181818;stroke-width:0.5;" width="4" x="155.9484" y="550.7066"/><rect fill="#F1F1F1" height="2" style="stroke:#181818;stroke-width:0.5;" width="4" x="155.9484" y="554.7066"/><text fill="#000000" font-family="sans-serif" font-size="14" lengthAdjust="spacing" textLength="79.8984" x="73.05" y="577.2417">Site-Builder</text></g><!--entity db--><g id="elem_db"><rect fill="#F1F1F1" height="46.4883" rx="2.5" ry="2.5" style="stroke:#181818;stroke-width:0.5;" width="248.2432" x="212.88" y="543.7066"/><rect fill="#F1F1F1" height="10" style="stroke:#181818;stroke-width:0.5;" width="15" x="441.1232" y="548.7066"/><rect fill="#F1F1F1" height="2" style="stroke:#181818;stroke-width:0.5;" width="4" x="439.1232" y="550.7066"/><rect fill="#F1F1F1" height="2" style="stroke:#181818;stroke-width:0.5;" width="4" x="439.1232" y="554.7066"/><text fill="#000000" font-family="sans-serif" font-size="14" lengthAdjust="spacing" textLength="208.2432" x="227.88" y="577.2417">Datenbank - sqlite in-memory</text></g><!--entity static_site--><g id="elem_static_site"><rect fill="#F1F1F1" height="46.4883" rx="2.5" ry="2.5" style="stroke:#181818;stroke-width:0.5;" width="145.7246" x="72.14" y="396.4666"/><rect fill="#F1F1F1" height="10" style="stroke:#181818;stroke-width:0.5;" width="15" x="197.8646" y="401.4666"/><rect fill="#F1F1F1" height="2" style="stroke:#181818;stroke-width:0.5;" width="4" x="195.8646" y="403.4666"/><rect fill="#F1F1F1" height="2" style="stroke:#181818;stroke-width:0.5;" width="4" x="195.8646" y="407.4666"/><text fill="#000000" font-family="sans-serif" font-size="14" lengthAdjust="spacing" textLength="105.7246" x="87.14" y="430.0017">statische Seiten</text></g><!--entity form_backend--><g id="elem_form_backend"><rect fill="#F1F1F1" height="46.4883" rx="2.5" ry="2.5" style="stroke:#181818;stroke-width:0.5;" width="140.2012" x="397.9" y="396.4666"/><rect fill="#F1F1F1" height="10" style="stroke:#181818;stroke-width:0.5;" width="15" x="518.1012" y="401.4666"/><rect fill="#F1F1F1" height="2" style="stroke:#181818;stroke-width:0.5;" width="4" x="516.1012" y="403.4666"/><rect fill="#F1F1F1" height="2" style="stroke:#181818;stroke-width:0.5;" width="4" x="516.1012" y="407.4666"/><text fill="#000000" font-family="sans-serif" font-size="14" lengthAdjust="spacing" textLength="100.2012" x="412.9" y="430.0017">Form-backend</text></g><!--entity api--><g id="elem_api"><rect fill="#F1F1F1" height="46.4883" rx="2.5" ry="2.5" style="stroke:#181818;stroke-width:0.5;" width="109.4873" x="253.26" y="396.4666"/><rect fill="#F1F1F1" height="10" style="stroke:#181818;stroke-width:0.5;" width="15" x="342.7473" y="401.4666"/><rect fill="#F1F1F1" height="2" style="stroke:#181818;stroke-width:0.5;" width="4" x="340.7473" y="403.4666"/><rect fill="#F1F1F1" height="2" style="stroke:#181818;stroke-width:0.5;" width="4" x="340.7473" y="407.4666"/><text fill="#000000" font-family="sans-serif" font-size="14" lengthAdjust="spacing" textLength="69.4873" x="268.26" y="430.0017">Demo-API</text></g><!--entity client--><g id="elem_client"><rect fill="#F1F1F1" height="46.4883" rx="2.5" ry="2.5" style="stroke:#181818;stroke-width:0.5;" width="150.2979" x="603.85" y="60.9766"/><rect fill="#F1F1F1" height="10" style="stroke:#181818;stroke-width:0.5;" width="15" x="734.1479" y="65.9766"/><rect fill="#F1F1F1" height="2" style="stroke:#181818;stroke-width:0.5;" width="4" x="732.1479" y="67.9766"/><rect fill="#F1F1F1" height="2" style="stroke:#181818;stroke-width:0.5;" width="4" x="732.1479" y="71.9766"/><text fill="#000000" font-family="sans-serif" font-size="14" lengthAdjust="spacing" textLength="110.2979" x="618.85" y="94.5117">Client - Browser</text></g><!--entity doc--><g id="elem_doc"><rect fill="#F1F1F1" height="46.4883" rx="2.5" ry="2.5" style="stroke:#181818;stroke-width:0.5;" width="201.3828" x="633.31" y="396.4666"/><rect fill="#F1F1F1" height="10" style="stroke:#181818;stroke-width:0.5;" width="15" x="814.6928" y="401.4666"/><rect fill="#F1F1F1" height="2" style="stroke:#181818;stroke-width:0.5;" width="4" x="812.6928" y="403.4666"/><rect fill="#F1F1F1" height="2" style="stroke:#181818;stroke-width:0.5;" width="4" x="812.6928" y="407.4666"/><text fill="#000000" font-family="sans-serif" font-size="14" lengthAdjust="spacing" textLength="161.3828" x="648.31" y="430.0017">docsify-Dokumentation</text></g><!--entity smtp--><g id="elem_smtp"><ellipse cx="878" cy="566.9566" fill="#F1F1F1" rx="8" ry="8" style="stroke:#181818;stroke-width:0.5;"/><text fill="#000000" font-family="sans-serif" font-size="14" lengthAdjust="spacing" textLength="36.1895" x="859.9053" y="597.4917">SMTP</text></g><!--entity email--><g id="elem_email"><rect fill="#F1F1F1" height="46.4883" rx="2.5" ry="2.5" style="stroke:#181818;stroke-width:0.5;" width="185.3525" x="785.32" y="661.1966"/><rect fill="#F1F1F1" height="10" style="stroke:#181818;stroke-width:0.5;" width="15" x="950.6725" y="666.1966"/><rect fill="#F1F1F1" height="2" style="stroke:#181818;stroke-width:0.5;" width="4" x="948.6725" y="668.1966"/><rect fill="#F1F1F1" height="2" style="stroke:#181818;stroke-width:0.5;" width="4" x="948.6725" y="672.1966"/><text fill="#000000" font-family="sans-serif" font-size="14" lengthAdjust="spacing" textLength="145.3525" x="800.32" y="694.7317">Email-Dienst (extern)</text></g><!--entity http--><g id="elem_http"><ellipse cx="625" cy="213.4666" fill="#F1F1F1" rx="8" ry="8" style="stroke:#181818;stroke-width:0.5;"/><text fill="#000000" font-family="sans-serif" font-size="14" lengthAdjust="spacing" textLength="35.7314" x="607.1343" y="244.0017">HTTP</text></g><!--entity http_doc--><g id="elem_http_doc"><ellipse cx="731" cy="213.4666" fill="#F1F1F1" rx="8" ry="8" style="stroke:#181818;stroke-width:0.5;"/><text fill="#000000" font-family="sans-serif" font-size="14" lengthAdjust="spacing" textLength="35.7314" x="713.1343" y="244.0017">HTTP</text></g><!--link smtp to email--><g id="link_smtp_email"><path d="M878,575.8966 C878,593.2166 878,634.9566 878,661.0466 " fill="none" id="smtp-email" style="stroke:#181818;stroke-width:1.0;"/></g><!--link http to webserver--><g id="link_http_webserver"><path d="M617.7,222.3766 C607.32,234.1866 588.7,257.6266 581,281.4666 C576.64,294.9691 573.9825,309.6091 572.4717,324.1283 C571.7163,331.3879 571.2476,338.6173 570.9961,345.6592 C570.9332,347.4197 570.8839,349.1685 570.8471,350.9031 C570.8379,351.3367 570.8295,351.7695 570.8218,352.2013 C570.818,352.4172 570.8144,375.1212 570.8109,375.3367 " fill="none" id="http-webserver" style="stroke:#181818;stroke-width:1.0;"/></g><!--link client to http--><g id="link_client_http"><path d="M659.95,107.9566 C653.43,116.7166 646.62,127.1166 642,137.4666 C631.67,160.6366 627.9759,184.7636 626.4159,198.7336 " fill="none" id="client-to-http" style="stroke:#181818;stroke-width:1.0;stroke-dasharray:7.0,7.0;"/><polygon fill="#181818" points="625.75,204.6966,630.7241,196.1961,626.3049,199.7274,622.7735,195.3082,625.75,204.6966" style="stroke:#181818;stroke-width:1.0;"/><text fill="#000000" font-family="sans-serif" font-size="13" lengthAdjust="spacing" textLength="50.0703" x="643" y="151.0349">Ruft auf</text></g><!--link http_doc to doc--><g id="link_http_doc_doc"><path d="M731.11,222.2266 C731.53,250.7866 733,350.7866 733.67,396.0966 " fill="none" id="http_doc-doc" style="stroke:#181818;stroke-width:1.0;"/></g><!--link client to http_doc--><g id="link_client_http_doc"><path d="M688.18,107.6766 C700.01,136.6466 717.7399,180.0126 725.5099,199.0226 " fill="none" id="client-to-http_doc" style="stroke:#181818;stroke-width:1.0;stroke-dasharray:7.0,7.0;"/><polygon fill="#181818" points="727.78,204.5766,728.0775,194.7322,725.8883,199.9482,720.6722,197.759,727.78,204.5766" style="stroke:#181818;stroke-width:1.0;"/><text fill="#000000" font-family="sans-serif" font-size="13" lengthAdjust="spacing" textLength="50.0703" x="707.56" y="151.0349">Ruft auf</text></g><!--link api to db--><g id="link_api_db"><path d="M312.53,443.4066 C317.98,470.6866 325.8958,510.3226 331.3258,537.5326 " fill="none" id="api-to-db" style="stroke:#181818;stroke-width:1.0;stroke-dasharray:7.0,7.0;"/><polygon fill="#181818" points="332.5,543.4166,334.6614,533.8078,331.5215,538.5132,326.816,535.3734,332.5,543.4166" style="stroke:#181818;stroke-width:1.0;"/><text fill="#000000" font-family="sans-serif" font-size="13" lengthAdjust="spacing" textLength="49.7212" x="326.1" y="504.5249">fragt ab</text></g><!--link form_backend to smtp--><g id="link_form_backend_smtp"><path d="M487.99,443.3266 C501.71,457.2466 521.15,474.0666 542,482.9566 C572.84,496.0966 584.1,484.5266 617,490.9566 C717.87,510.6766 830.5507,549.2035 863.4607,560.7935 " fill="none" id="form_backend-to-smtp" style="stroke:#181818;stroke-width:1.0;stroke-dasharray:7.0,7.0;"/><polygon fill="#181818" points="869.12,562.7866,861.9597,556.0241,864.4039,561.1257,859.3023,563.5699,869.12,562.7866" style="stroke:#181818;stroke-width:1.0;"/><text fill="#000000" font-family="sans-serif" font-size="13" lengthAdjust="spacing" textLength="42.2246" x="690.63" y="504.5249">sendet</text></g><!--reverse link static_site to site_builder--><g id="link_static_site_site_builder"><path d="M139.6837,449.3056 C134.6137,476.5856 127.25,516.2066 122.19,543.4166 " fill="none" id="static_site-backto-site_builder" style="stroke:#181818;stroke-width:1.0;stroke-dasharray:7.0,7.0;"/><polygon fill="#181818" points="140.78,443.4066,135.2028,451.5242,139.8664,448.3224,143.0682,452.9859,140.78,443.4066" style="stroke:#181818;stroke-width:1.0;"/><text fill="#000000" font-family="sans-serif" font-size="13" lengthAdjust="spacing" textLength="57.1606" x="132.5" y="504.5249">generiert</text></g><!--SRC=[TL7BJiCm43pNNx7g2Gxk1-I0L2Y8Ln6YI1mYL3d99hKIsy7U01NglxDsMgYGk4JnpEpiU4oQEXHBPrsdQGCIxfpfdKLBQCLy28soJUXKWncq7MgBi43ZvBpl1TgAqhJ8BphD4pnzxjr7GFyAAa2PG46kGTgWXoyniQv2c1wsJQFA75OpFSbNcb2U3xghzYQ1WNKn0YpeLTbo69W-iDFjIhvW8LVetzdUQ0AE9UzTezja_O556BdeFSa3ATAXt22ia6tjk222vJhkIQ8hvuqiU0rVBmbg1jPx82d60Xvl4gjwpU0kPbyezYoKRRc7yCPtGj1M6bRxRT9MXOZAl79bqFLMBbmx6Aw80xWn33DY9uJczdsjIWwwV7vCAGtr8hyqIdTomRK6WXFyP9KzJOCO6H5L8EN-T6Hp_JpQR8W58drPzjEF69yAPhEp9CdWQQW9r53_PxBcfADH-cEp6FsFJQIEhRYhn5L51hLN3SE5EAutiV4I6GG-8edZvuVPq4V-zy4oQD2Yr-Zf6m00]--></g></svg>