<?xml version="1.0" encoding="us-ascii" standalone="no"?><svg xmlns="http://www.w3.org/2000/svg" xmlns:xlink="http://www.w3.org/1999/xlink" contentStyleType="text/css" height="597px" preserveAspectRatio="none" style="width:1219px;height:597px;background:#FFFFFF;" version="1.1" viewBox="0 0 1219 597" width="1219px" zoomAndPan="magnify"><defs/><g><text fill="#000000" font-family="sans-serif" font-size="14" font-weight="bold" lengthAdjust="spacing" textLength="246" x="479.75" y="23.5352">Ziel-Architektur als Microservices</text><!--cluster Microservices--><g id="cluster_Microservices"><polygon fill="none" points="16,163.9783,26,153.9783,1011,153.9783,1011,570.4383,1001,580.4383,16,580.4383,16,163.9783" style="stroke:#181818;stroke-width:1.0;"/><line style="stroke:#181818;stroke-width:1.0;" x1="1001" x2="1011" y1="163.9783" y2="153.9783"/><line style="stroke:#181818;stroke-width:1.0;" x1="16" x2="1001" y1="163.9783" y2="163.9783"/><line style="stroke:#181818;stroke-width:1.0;" x1="1001" x2="1001" y1="163.9783" y2="580.4383"/><text fill="#000000" font-family="sans-serif" font-size="14" font-weight="bold" lengthAdjust="spacing" textLength="98" x="460.5" y="180.5134">Microservices</text></g><!--cluster static_site--><g id="cluster_static_site"><path d="M269.5,209.9783 L443.5,209.9783 A3.75,3.75 0 0 1 446,212.4783 L453,232.4666 L625.5,232.4666 A2.5,2.5 0 0 1 628,234.9666 L628,444.4483 A2.5,2.5 0 0 1 625.5,446.9483 L269.5,446.9483 A2.5,2.5 0 0 1 267,444.4483 L267,212.4783 A2.5,2.5 0 0 1 269.5,209.9783 " fill="none" style="stroke:#000000;stroke-width:1.5;"/><line style="stroke:#000000;stroke-width:1.5;" x1="267" x2="453" y1="232.4666" y2="232.4666"/><text fill="#000000" font-family="sans-serif" font-size="14" font-weight="bold" lengthAdjust="spacing" textLength="173" x="271" y="225.5134">statische Seiten-Service</text></g><!--entity form_backend--><g id="elem_form_backend"><rect fill="#F1F1F1" height="46.4883" rx="2.5" ry="2.5" style="stroke:#181818;stroke-width:0.5;" width="132" x="863" y="376.4583"/><rect fill="#F1F1F1" height="10" style="stroke:#181818;stroke-width:0.5;" width="15" x="975" y="381.4583"/><rect fill="#F1F1F1" height="2" style="stroke:#181818;stroke-width:0.5;" width="4" x="973" y="383.4583"/><rect fill="#F1F1F1" height="2" style="stroke:#181818;stroke-width:0.5;" width="4" x="973" y="387.4583"/><text fill="#000000" font-family="sans-serif" font-size="14" lengthAdjust="spacing" textLength="92" x="878" y="409.9934">Form-Service</text></g><!--entity comment_backend--><g id="elem_comment_backend"><rect fill="#F1F1F1" height="46.4883" rx="2.5" ry="2.5" style="stroke:#181818;stroke-width:0.5;" width="176" x="652" y="376.4583"/><rect fill="#F1F1F1" height="10" style="stroke:#181818;stroke-width:0.5;" width="15" x="808" y="381.4583"/><rect fill="#F1F1F1" height="2" style="stroke:#181818;stroke-width:0.5;" width="4" x="806" y="383.4583"/><rect fill="#F1F1F1" height="2" style="stroke:#181818;stroke-width:0.5;" width="4" x="806" y="387.4583"/><text fill="#000000" font-family="sans-serif" font-size="14" lengthAdjust="spacing" textLength="136" x="667" y="409.9934">Kommentar-Service</text></g><!--entity db--><g id="elem_db"><rect fill="#F1F1F1" height="46.4883" rx="2.5" ry="2.5" style="stroke:#181818;stroke-width:0.5;" width="202" x="727" y="517.9483"/><rect fill="#F1F1F1" height="10" style="stroke:#181818;stroke-width:0.5;" width="15" x="909" y="522.9483"/><rect fill="#F1F1F1" height="2" style="stroke:#181818;stroke-width:0.5;" width="4" x="907" y="524.9483"/><rect fill="#F1F1F1" height="2" style="stroke:#181818;stroke-width:0.5;" width="4" x="907" y="528.9483"/><text fill="#000000" font-family="sans-serif" font-size="14" lengthAdjust="spacing" textLength="162" x="742" y="551.4834">Datenbank - Postgresql</text></g><!--entity doc--><g id="elem_doc"><rect fill="#F1F1F1" height="46.4883" rx="2.5" ry="2.5" style="stroke:#181818;stroke-width:0.5;" width="207" x="32.5" y="252.9783"/><rect fill="#F1F1F1" height="10" style="stroke:#181818;stroke-width:0.5;" width="15" x="219.5" y="257.9783"/><rect fill="#F1F1F1" height="2" style="stroke:#181818;stroke-width:0.5;" width="4" x="217.5" y="259.9783"/><rect fill="#F1F1F1" height="2" style="stroke:#181818;stroke-width:0.5;" width="4" x="217.5" y="263.9783"/><text fill="#000000" font-family="sans-serif" font-size="14" lengthAdjust="spacing" textLength="167" x="47.5" y="286.5134">mkdocs-Dokumentation</text></g><!--entity proxy--><g id="elem_proxy"><rect fill="#F1F1F1" height="46.4883" rx="2.5" ry="2.5" style="stroke:#181818;stroke-width:0.5;" width="109" x="494.5" y="252.9783"/><rect fill="#F1F1F1" height="10" style="stroke:#181818;stroke-width:0.5;" width="15" x="583.5" y="257.9783"/><rect fill="#F1F1F1" height="2" style="stroke:#181818;stroke-width:0.5;" width="4" x="581.5" y="259.9783"/><rect fill="#F1F1F1" height="2" style="stroke:#181818;stroke-width:0.5;" width="4" x="581.5" y="263.9783"/><text fill="#000000" font-family="sans-serif" font-size="14" lengthAdjust="spacing" textLength="69" x="509.5" y="286.5134">API-Proxy</text></g><!--entity build_site--><g id="elem_build_site"><rect fill="#F1F1F1" height="46.4883" rx="2.5" ry="2.5" style="stroke:#181818;stroke-width:0.5;" width="150" x="310" y="252.9783"/><rect fill="#F1F1F1" height="10" style="stroke:#181818;stroke-width:0.5;" width="15" x="440" y="257.9783"/><rect fill="#F1F1F1" height="2" style="stroke:#181818;stroke-width:0.5;" width="4" x="438" y="259.9783"/><rect fill="#F1F1F1" height="2" style="stroke:#181818;stroke-width:0.5;" width="4" x="438" y="263.9783"/><text fill="#000000" font-family="sans-serif" font-size="14" lengthAdjust="spacing" textLength="110" x="325" y="286.5134">gebildete Seiten</text></g><!--entity site_builder--><g id="elem_site_builder"><rect fill="#F1F1F1" height="46.4883" rx="2.5" ry="2.5" style="stroke:#181818;stroke-width:0.5;" width="121" x="324.5" y="376.4583"/><rect fill="#F1F1F1" height="10" style="stroke:#181818;stroke-width:0.5;" width="15" x="425.5" y="381.4583"/><rect fill="#F1F1F1" height="2" style="stroke:#181818;stroke-width:0.5;" width="4" x="423.5" y="383.4583"/><rect fill="#F1F1F1" height="2" style="stroke:#181818;stroke-width:0.5;" width="4" x="423.5" y="387.4583"/><text fill="#000000" font-family="sans-serif" font-size="14" lengthAdjust="spacing" textLength="81" x="339.5" y="409.9934">Site-Builder</text></g><!--entity client--><g id="elem_client"><rect fill="#F1F1F1" height="46.4883" rx="2.5" ry="2.5" style="stroke:#181818;stroke-width:0.5;" width="151" x="129.5" y="44.4883"/><rect fill="#F1F1F1" height="10" style="stroke:#181818;stroke-width:0.5;" width="15" x="260.5" y="49.4883"/><rect fill="#F1F1F1" height="2" style="stroke:#181818;stroke-width:0.5;" width="4" x="258.5" y="51.4883"/><rect fill="#F1F1F1" height="2" style="stroke:#181818;stroke-width:0.5;" width="4" x="258.5" y="55.4883"/><text fill="#000000" font-family="sans-serif" font-size="14" lengthAdjust="spacing" textLength="111" x="144.5" y="78.0234">Client - Browser</text></g><!--entity email--><g id="elem_email"><rect fill="#F1F1F1" height="46.4883" rx="2.5" ry="2.5" style="stroke:#181818;stroke-width:0.5;" width="187" x="1026.5" y="517.9483"/><rect fill="#F1F1F1" height="10" style="stroke:#181818;stroke-width:0.5;" width="15" x="1193.5" y="522.9483"/><rect fill="#F1F1F1" height="2" style="stroke:#181818;stroke-width:0.5;" width="4" x="1191.5" y="524.9483"/><rect fill="#F1F1F1" height="2" style="stroke:#181818;stroke-width:0.5;" width="4" x="1191.5" y="528.9483"/><text fill="#000000" font-family="sans-serif" font-size="14" lengthAdjust="spacing" textLength="147" x="1041.5" y="551.4834">Email-Dienst (extern)</text></g><!--link client to static_site--><g id="link_client_static_site"><path d="M231.55,91.2283 C246.1,105.2983 262.79,124.7483 271,145.9783 C276.1,159.1683 278.9319,173.6933 280.3031,188.0973 C280.9888,195.2994 281.3092,202.4712 281.3655,209.4307 " fill="none" id="client-to-static_site" style="stroke:#181818;stroke-width:1.0;stroke-dasharray:7.0,7.0;"/><polygon fill="#181818" points="281.3655,209.4307,285.2926,200.3987,281.3251,204.4309,277.2929,200.4634,281.3655,209.4307" style="stroke:#181818;stroke-width:1.0;"/><text fill="#000000" font-family="sans-serif" font-size="13" lengthAdjust="spacing" textLength="50" x="267" y="134.5466">Ruft auf</text></g><!--link client to doc--><g id="link_client_doc"><path d="M185.85,91.4183 C179.32,100.1683 172.52,110.5783 168,120.9783 C149.87,162.6383 141.79,215.1983 138.36,246.9583 " fill="none" id="client-to-doc" style="stroke:#181818;stroke-width:1.0;stroke-dasharray:7.0,7.0;"/><polygon fill="#181818" points="137.77,251.6383,142.6965,243.1101,138.2971,246.6661,134.7411,242.2667,137.77,251.6383" style="stroke:#181818;stroke-width:1.0;"/><text fill="#000000" font-family="sans-serif" font-size="13" lengthAdjust="spacing" textLength="50" x="169" y="134.5466">Ruft auf</text></g><!--link proxy to form_backend--><g id="link_proxy_form_backend"><path d="M603.99,294.3983 C636.33,304.5383 678.01,317.6583 715,329.4583 C762.35,344.5783 815.52,361.7783 857.01,375.2583 " fill="none" id="proxy-to-form_backend" style="stroke:#181818;stroke-width:1.0;stroke-dasharray:7.0,7.0;"/><polygon fill="#181818" points="861.53,377.0483,854.203,370.4668,856.7739,375.5058,851.735,378.0766,861.53,377.0483" style="stroke:#181818;stroke-width:1.0;"/><text fill="#000000" font-family="sans-serif" font-size="13" lengthAdjust="spacing" textLength="50" x="768" y="343.0266">Ruft auf</text></g><!--link proxy to comment_backend--><g id="link_proxy_comment_backend"><path d="M584.48,299.7883 C617.07,320.5183 665.36,351.2283 699.46,372.9183 " fill="none" id="proxy-to-comment_backend" style="stroke:#181818;stroke-width:1.0;stroke-dasharray:7.0,7.0;"/><polygon fill="#181818" points="703.39,376.0583,697.9499,367.8482,699.1735,373.3711,693.6505,374.5946,703.39,376.0583" style="stroke:#181818;stroke-width:1.0;"/><text fill="#000000" font-family="sans-serif" font-size="13" lengthAdjust="spacing" textLength="50" x="656" y="343.0266">Ruft auf</text></g><!--link form_backend to email--><g id="link_form_backend_email"><path d="M960.11,423.4283 C994.1,448.2483 1048.47,487.9483 1084.2,514.0483 " fill="none" id="form_backend-to-email" style="stroke:#181818;stroke-width:1.0;stroke-dasharray:7.0,7.0;"/><polygon fill="#181818" points="1087.9,517.4783,1082.9973,508.9364,1083.8644,514.5264,1078.2743,515.3934,1087.9,517.4783" style="stroke:#181818;stroke-width:1.0;"/><text fill="#000000" font-family="sans-serif" font-size="13" lengthAdjust="spacing" textLength="42" x="1048" y="484.5166">sendet</text></g><!--link form_backend to db--><g id="link_form_backend_db"><path d="M912.55,423.4283 C894.87,447.8483 866.76,486.6583 847.86,512.7583 " fill="none" id="form_backend-to-db" style="stroke:#181818;stroke-width:1.0;stroke-dasharray:7.0,7.0;"/><polygon fill="#181818" points="844.45,516.4783,852.9609,511.5219,847.3764,512.4241,846.4742,506.8397,844.45,516.4783" style="stroke:#181818;stroke-width:1.0;"/><text fill="#000000" font-family="sans-serif" font-size="13" lengthAdjust="spacing" textLength="58" x="876" y="484.5166">speichert</text></g><!--link comment_backend to db--><g id="link_comment_backend_db"><path d="M742.38,423.4083 C745.19,441.9983 751.23,468.3383 764,487.9483 C770.32,497.6583 779.03,506.4383 787.98,513.9183 " fill="none" id="comment_backend-to-db" style="stroke:#181818;stroke-width:1.0;stroke-dasharray:7.0,7.0;"/><polygon fill="#181818" points="791.39,517.4783,786.9079,508.7084,787.5024,514.3339,781.8769,514.9285,791.39,517.4783" style="stroke:#181818;stroke-width:1.0;"/><text fill="#000000" font-family="sans-serif" font-size="13" lengthAdjust="spacing" textLength="93" x="765" y="484.5166">speichert, liest</text></g><!--reverse link build_site to site_builder--><g id="link_build_site_site_builder"><path d="M353.66,303.8183 C346.89,311.3383 340.66,320.0683 337,329.4583 C330.36,346.4983 341.65,363.4083 354.94,376.2483 " fill="none" id="build_site-backto-site_builder" style="stroke:#181818;stroke-width:1.0;stroke-dasharray:7.0,7.0;"/><polygon fill="#181818" points="356.47,300.7583,347.3969,304.5895,353.0508,304.4064,353.2339,310.0603,356.47,300.7583" style="stroke:#181818;stroke-width:1.0;"/><text fill="#000000" font-family="sans-serif" font-size="13" lengthAdjust="spacing" textLength="56" x="338" y="343.0266">generiert</text></g><!--SRC=[RP5TIyCm58Qlcrznw9M2sG_OXR0v1H5Xk3k7Z3Gzwq8_KfDJdSZ-koUfmsppgkdxFkUR33K8hmORENDwPmXh6XoeniEpqSvwT1z6enTYVTSOx0Wap9tzPFqDb0STHT7P4Y4_YSZXMsIzqhMgsFAao7YzGrWX5-daQiJoa2IQUkFP247PUhPyb4jdzr-nHXzUGQwmC4s9T4mItM9WBSO6PCLVEG_IRuF1s1IZ8BA3oDOFrhN7yX7Pih0fk5FiIlQVRDloJCgTG7fK4swXk8L2TJMlP6azLGxzUnFXic2_hKkhlLpOUeZvoDYnOvR5WHTwtohJo0Klq1DSuPxGTTUHmE08CIuN9fFRT4LJU1cs16hOfW0dJOouigYdm_qBd0sMC6beH6DRK_3yZtHfbmLxFHg-iYDnblUIk07ktfD8BmIJeMVkxwPJgB13PvZ_0G00]--></g></svg>